<svg xmlns="http://www.w3.org/2000/svg" xmlns:svg="http://www.w3.org/2000/svg" xmlns:xlink="http://www.w3.org/1999/xlink" style="isolation:isolate" id="svg17" width="64" height="64" version="1.1" viewBox="0 0 48 48"><metadata id="metadata2"/><defs id="defs9"><linearGradient id="linearGradient12526" x1="5.481" x2="10.986" y1="5.332" y2="12.463" gradientTransform="matrix(43.5,0,0,44,5,2)" gradientUnits="userSpaceOnUse"><stop id="stop1" offset="0" stop-color="#3373a3"/><stop id="stop2" offset="1" stop-color="#ffd642"/></linearGradient><linearGradient id="linearGradient864" x1=".043" x2=".104" y1=".121" y2=".189" gradientTransform="matrix(43.5,0,0,44,5,2)" gradientUnits="userSpaceOnUse" xlink:href="#linearGradient12526"/></defs><g style="isolation:isolate" id="g15" fill="url(#linearGradient864)" stroke-width=".243" transform="matrix(3.854 0 0 3.7688 -6.6363 -8.129)"><path id="path13" d="m7.93 12c0.27 0 0.531-0.023 0.758-0.063 0.672-0.117 0.816-0.152 0.816-0.605v-1h-1.668v-0.332h2.332c0.461 0 0.762-0.281 0.887-0.801 0.145-0.598 0.152-0.973 0-1.594-0.113-0.465-0.426-0.938-0.887-0.938h-0.332v1c0 0.516-0.465 1-1 1h-1.668c-0.441 0-0.668 0.227-0.668 0.664v1.668c0 0.426 0.176 0.867 0.605 0.938 0.27 0.043 0.551 0.063 0.824 0.063zm0.57-0.668c-0.184 0-0.332-0.148-0.332-0.332s0.148-0.332 0.332-0.332c0.188 0 0.336 0.148 0.336 0.332s-0.148 0.332-0.336 0.332zm-0.43-6.332c-0.27 0-0.531 0.023-0.758 0.063-0.672 0.117-0.816 0.152-0.816 0.605v1h1.668v0.332h-2.332c-0.461 0-0.762 0.281-0.887 0.801-0.145 0.598-0.152 0.973 0 1.594 0.113 0.465 0.426 0.938 0.887 0.938h0.332v-1c0-0.516 0.465-1 1-1h1.668c0.441 0 0.668-0.227 0.668-0.664v-1.668c0-0.426-0.176-0.867-0.605-0.938-0.27-0.043-0.551-0.063-0.824-0.063zm-0.57 0.668c0.184 0 0.332 0.148 0.332 0.332s-0.148 0.332-0.332 0.332c-0.188 0-0.336-0.148-0.336-0.332s0.148-0.332 0.336-0.332zm5.379 2.3263m-0.01376 5.0838c-7.45e-4 0.72745-0.56857 1.2843-1.2203 1.2843h-7.3917c-0.6811 0-1.234-0.56543-1.234-1.2619v-5.1062c0-0.29293 0.21043-0.53067 0.46964-0.53067 0.25895 0 0.46938 0.23774 0.46938 0.53067v4.5495c0 0.41791 0.33186 0.75727 0.74052 0.75727h6.5007c0.40866 0 0.74052-0.33937 0.74052-0.75727v-8.0376c0-0.41791-0.33186-0.75727-0.74052-0.75727h-6.5007c-0.40866 0-0.74052 0.33937-0.74052 0.75727v1.3654c0 0.29293-0.21043 0.53067-0.46938 0.53067-0.25921 0-0.46964-0.23774-0.46964-0.53067v-1.9221c0-0.69651 0.55293-1.2619 1.234-1.2619h7.3917c0.6517 0 1.2303 0.5666 1.2296 1.2653z" style="fill-opacity:1;fill:url(#linearGradient864)"/></g></svg>