<svg xmlns="http://www.w3.org/2000/svg" xmlns:xlink="http://www.w3.org/1999/xlink" style="isolation:isolate" width="64" height="64" viewBox="0 0 48 48"><mask id="_mask_5TRsJak87HAANcoJ7i0cb67VQD7KeYER" width="400%" height="400%" x="-200%" y="-200%"><rect width="400%" height="400%" x="-200%" y="-200%" style="fill:#fff"/><path fill="#000" fill-rule="evenodd" stroke="none" d="M 5.479 35.599 C 5.483 33.954 6.874 31.657 8.85 29.57 C 10.171 28.176 11.513 26.951 14.436 24.445 C 12.413 23.329 9.268 21.982 7.689 20.219 C 7.106 19.566 6.047 18.088 6.252 16.113 C 6.671 12.088 11.612 5.98 18.635 4.688 C 20.972 4.259 23.654 4.569 25.862 5.567 C 32.789 8.699 41.261 16.478 42.303 20.277 C 42.67 21.614 42.6 23.745 41.967 24.933 C 41.183 26.405 38.47 29.396 34.757 32.481 C 28.932 37.322 20.768 42.521 14.673 43.395 C 12.704 43.678 10.691 43.383 9.279 42.582 C 7.069 41.328 6.335 39.655 6.077 39.153 C 5.392 37.819 5.477 36.129 5.479 35.599 L 5.479 35.599 Z"/></mask><path fill="none" fill-rule="evenodd" d="M 5.479 35.599 C 5.483 33.954 6.874 31.657 8.85 29.57 C 10.171 28.176 11.513 26.951 14.436 24.445 C 12.413 23.329 9.268 21.982 7.689 20.219 C 7.106 19.566 6.047 18.088 6.252 16.113 C 6.671 12.088 11.612 5.98 18.635 4.688 C 20.972 4.259 23.654 4.569 25.862 5.567 C 32.789 8.699 41.261 16.478 42.303 20.277 C 42.67 21.614 42.6 23.745 41.967 24.933 C 41.183 26.405 38.47 29.396 34.757 32.481 C 28.932 37.322 20.768 42.521 14.673 43.395 C 12.704 43.678 10.691 43.383 9.279 42.582 C 7.069 41.328 6.335 39.655 6.077 39.153 C 5.392 37.819 5.477 36.129 5.479 35.599 L 5.479 35.599 Z"/><linearGradient id="_lgradient_59" x1=".543" x2=".52" y1="-.266" y2=".983"><stop offset="3.043%" stop-opacity="1" style="stop-color:#a67cf3"/><stop offset="98.696%" stop-opacity="1" style="stop-color:#584e7b"/></linearGradient><path fill="none" fill-rule="evenodd" stroke="url(#_lgradient_59)" stroke-linecap="butt" stroke-linejoin="miter" stroke-miterlimit="4" stroke-width="8" d="M 5.479 35.599 C 5.483 33.954 6.874 31.657 8.85 29.57 C 10.171 28.176 11.513 26.951 14.436 24.445 C 12.413 23.329 9.268 21.982 7.689 20.219 C 7.106 19.566 6.047 18.088 6.252 16.113 C 6.671 12.088 11.612 5.98 18.635 4.688 C 20.972 4.259 23.654 4.569 25.862 5.567 C 32.789 8.699 41.261 16.478 42.303 20.277 C 42.67 21.614 42.6 23.745 41.967 24.933 C 41.183 26.405 38.47 29.396 34.757 32.481 C 28.932 37.322 20.768 42.521 14.673 43.395 C 12.704 43.678 10.691 43.383 9.279 42.582 C 7.069 41.328 6.335 39.655 6.077 39.153 C 5.392 37.819 5.477 36.129 5.479 35.599 L 5.479 35.599 Z" mask="url(#_mask_5TRsJak87HAANcoJ7i0cb67VQD7KeYER)" vector-effect="non-scaling-stroke"/><linearGradient id="_lgradient_60" x1=".543" x2=".52" y1="-.266" y2=".983" gradientTransform="matrix(3.716,-7.563,9.075,4.459,20.257,14.413)" gradientUnits="userSpaceOnUse"><stop offset="3.043%" stop-opacity="1" style="stop-color:#a67cf3"/><stop offset="98.696%" stop-opacity="1" style="stop-color:#584e7b"/></linearGradient><path fill="url(#_lgradient_60)" d="M 24.795 16.642 C 22.29 15.412 21.089 12.718 22.115 10.631 C 23.14 8.544 26.006 7.849 28.51 9.08 C 31.015 10.31 32.216 13.003 31.19 15.09 C 30.165 17.177 27.299 17.873 24.795 16.642 Z"/></svg>